<?xml version="1.0" encoding="utf-8"?>
<!-- Generator: Adobe Illustrator 17.0.0, SVG Export Plug-In . SVG Version: 6.00 Build 0)  -->
<!DOCTYPE svg PUBLIC "-//W3C//DTD SVG 1.1//EN" "http://www.w3.org/Graphics/SVG/1.1/DTD/svg11.dtd">
<svg version="1.1" id="Capa_1" xmlns="http://www.w3.org/2000/svg" xmlns:xlink="http://www.w3.org/1999/xlink" x="0px" y="0px"
	 width="360.5px" height="238.5px" viewBox="0 0 360.5 238.5" enable-background="new 0 0 360.5 238.5" xml:space="preserve">
<g>
	<path fill="#1A1A1A" stroke="#1A1A1A" stroke-miterlimit="10" d="M125.656,32.391L125.656,32.391c2.56,2.56,1.92,6.4,0,8.32
		l-90.88,78.08c-2.56,2.56-2.56,6.4,0,8.32l90.24,78.08c2.56,1.92,2.56,5.76,0,8.32l0,0c-1.92,1.92-5.76,1.92-7.68,0l-98.56-85.76
		c-2.56-2.56-2.56-6.4,0-8.32l99.2-86.4C119.896,30.471,123.736,30.471,125.656,32.391z"/>
	<path fill="#1A1A1A" stroke="#1A1A1A" stroke-miterlimit="10" d="M151.896,227.591L151.896,227.591c-3.2-0.64-4.48-3.84-3.84-6.4
		l53.12-198.4c0.64-3.2,3.84-4.48,6.4-3.84l0,0c3.2,0.64,4.48,3.84,3.84,6.4l-53.12,198.4
		C157.656,226.951,155.096,228.231,151.896,227.591z"/>
	<path fill="#1A1A1A" stroke="#1A1A1A" stroke-miterlimit="10" d="M234.456,32.391L234.456,32.391c-2.56,2.56-1.92,6.4,0,8.32
		l90.24,78.08c2.56,2.56,2.56,6.4,0,8.32l-89.6,78.72c-2.56,1.92-2.56,5.76,0,8.32l0,0c1.92,1.92,5.76,1.92,7.68,0l99.2-86.4
		c2.56-2.56,2.56-6.4,0-8.32l-99.84-87.04C240.216,30.471,236.376,30.471,234.456,32.391z"/>
</g>
</svg>
